<?xml version="1.0" encoding="UTF-8" standalone="no"?><!DOCTYPE svg PUBLIC "-//W3C//DTD SVG 1.1//EN" "http://www.w3.org/Graphics/SVG/1.1/DTD/svg11.dtd"><!-- Generated by graphviz version 2.40.1 (20161225.0304)
 --><!-- Title: workflow Pages: 1 --><svg xmlns="http://www.w3.org/2000/svg" xmlns:xlink="http://www.w3.org/1999/xlink" width="2129pt" height="168pt" viewBox="0.00 0.00 2128.94 168.00">
<g id="graph0" class="graph" transform="scale(1 1) rotate(0) translate(4 164)">
<title>workflow</title>
<polygon fill="#ffffff" stroke="transparent" points="-4,4 -4,-164 2124.9449,-164 2124.9449,4 -4,4"/>
<!-- portfolio_local_hub_account_id_region_Portfolio -->
<g id="node1" class="node">
<title>portfolio_local_hub_account_id_region_Portfolio</title>
<polygon fill="none" stroke="#880000" stroke-opacity="0.133333" points="752,-5 752,-31 1082,-31 1082,-5 752,-5"/>
<text text-anchor="start" x="757.0395" y="-14.4" font-family="Times,serif" font-size="14.00" fill="#000000"> </text>
<text text-anchor="start" x="760.5395" y="-14.4" font-family="Times,serif" font-weight="bold" font-size="14.00" fill="#000000">portfolio-local-hub_account_id-region-Portfolio</text>
</g>
<!-- portfolio_puppet_role_association_hub_account_id_region_Portfolio -->
<g id="node2" class="node">
<title>portfolio_puppet_role_association_hub_account_id_region_Portfolio</title>
<polygon fill="none" stroke="#880000" stroke-opacity="0.133333" points="700,-72 700,-98 1134,-98 1134,-72 700,-72"/>
<text text-anchor="start" x="704.9462" y="-81.4" font-family="Times,serif" font-size="14.00" fill="#000000"> </text>
<text text-anchor="start" x="708.4462" y="-81.4" font-family="Times,serif" font-weight="bold" font-size="14.00" fill="#000000">portfolio-puppet-role-association-hub_account_id-region-Portfolio</text>
</g>
<!-- portfolio_puppet_role_association_hub_account_id_region_Portfolio&#45;&gt;portfolio_local_hub_account_id_region_Portfolio -->
<g id="edge1" class="edge">
<title>portfolio_puppet_role_association_hub_account_id_region_Portfolio-&gt;portfolio_local_hub_account_id_region_Portfolio</title>
<path fill="none" stroke="#000000" d="M917,-71.763C917,-63.137 917,-51.6399 917,-41.4919"/>
<polygon fill="#000000" stroke="#000000" points="920.5001,-41.2095 917,-31.2095 913.5001,-41.2096 920.5001,-41.2095"/>
</g>
<!-- create_policies -->
<g id="node7" class="node">
<title>create_policies</title>
<ellipse fill="none" stroke="#000000" cx="1618" cy="-18" rx="68.8946" ry="18"/>
<text text-anchor="middle" x="1618" y="-13.8" font-family="Times,serif" font-size="14.00" fill="#000000">create_policies</text>
</g>
<!-- portfolio_puppet_role_association_hub_account_id_region_Portfolio&#45;&gt;create_policies -->
<g id="edge2" class="edge">
<title>portfolio_puppet_role_association_hub_account_id_region_Portfolio-&gt;create_policies</title>
<path fill="none" stroke="#000000" d="M1053.4073,-71.9625C1199.5538,-57.9941 1426.1971,-36.3321 1542.9015,-25.1777"/>
<polygon fill="#000000" stroke="#000000" points="1543.541,-28.6327 1553.1626,-24.197 1542.8749,-21.6644 1543.541,-28.6327"/>
</g>
<!-- describe_portfolio_shares_ORGANIZATIONAL_UNIT_portfolio_local_hub_account_id_region_Portfolio -->
<g id="node3" class="node">
<title>describe_portfolio_shares_ORGANIZATIONAL_UNIT_portfolio_local_hub_account_id_region_Portfolio</title>
<polygon fill="none" stroke="#880000" stroke-opacity="0.133333" points="0,-72 0,-98 644,-98 644,-72 0,-72"/>
<text text-anchor="start" x="4.6151" y="-81.4" font-family="Times,serif" font-size="14.00" fill="#000000"> </text>
<text text-anchor="start" x="8.1151" y="-81.4" font-family="Times,serif" font-weight="bold" font-size="14.00" fill="#000000">describe-portfolio-shares-ORGANIZATIONAL_UNIT-portfolio-local-hub_account_id-region-Portfolio</text>
</g>
<!-- describe_portfolio_shares_ORGANIZATIONAL_UNIT_portfolio_local_hub_account_id_region_Portfolio&#45;&gt;portfolio_local_hub_account_id_region_Portfolio -->
<g id="edge3" class="edge">
<title>describe_portfolio_shares_ORGANIZATIONAL_UNIT_portfolio_local_hub_account_id_region_Portfolio-&gt;portfolio_local_hub_account_id_region_Portfolio</title>
<path fill="none" stroke="#000000" d="M437.7808,-71.9625C539.4718,-60.5116 687.0792,-43.8902 791.5532,-32.1259"/>
<polygon fill="#000000" stroke="#000000" points="791.9804,-35.6 801.526,-31.003 791.1971,-28.644 791.9804,-35.6"/>
</g>
<!-- portfolio_share_and_accept_ou_do8d_me7f39on_region_Portfolio -->
<g id="node4" class="node">
<title>portfolio_share_and_accept_ou_do8d_me7f39on_region_Portfolio</title>
<polygon fill="none" stroke="#880000" stroke-opacity="0.133333" points="460,-134 460,-160 884,-160 884,-134 460,-134"/>
<text text-anchor="start" x="465.395" y="-143.4" font-family="Times,serif" font-size="14.00" fill="#000000"> </text>
<text text-anchor="start" x="468.895" y="-143.4" font-family="Times,serif" font-weight="bold" font-size="14.00" fill="#000000">portfolio_share_and_accept-ou-id-region-Portfolio</text>
</g>
<!-- portfolio_share_and_accept_ou_do8d_me7f39on_region_Portfolio&#45;&gt;portfolio_local_hub_account_id_region_Portfolio -->
<g id="edge4" class="edge">
<title>portfolio_share_and_accept_ou_do8d_me7f39on_region_Portfolio-&gt;portfolio_local_hub_account_id_region_Portfolio</title>
<path fill="none" stroke="#000000" d="M671.4781,-133.8968C671.5636,-117.1633 674.3618,-88.4139 691,-72 708.4664,-54.7691 760.3595,-41.7211 810.0195,-32.7713"/>
<polygon fill="#000000" stroke="#000000" points="810.6662,-36.2114 819.9109,-31.0359 809.4565,-29.3167 810.6662,-36.2114"/>
</g>
<!-- portfolio_share_and_accept_ou_do8d_me7f39on_region_Portfolio&#45;&gt;describe_portfolio_shares_ORGANIZATIONAL_UNIT_portfolio_local_hub_account_id_region_Portfolio -->
<g id="edge6" class="edge">
<title>portfolio_share_and_accept_ou_do8d_me7f39on_region_Portfolio-&gt;describe_portfolio_shares_ORGANIZATIONAL_UNIT_portfolio_local_hub_account_id_region_Portfolio</title>
<path fill="none" stroke="#000000" d="M598.2017,-133.9272C541.7985,-123.9357 464.0255,-110.1588 405.3759,-99.7694"/>
<polygon fill="#000000" stroke="#000000" points="405.8541,-96.2997 395.3969,-98.0017 404.6331,-103.1924 405.8541,-96.2997"/>
</g>
<!-- portfolio_share_and_accept_ou_do8d_me7f39on_region_Portfolio&#45;&gt;create_policies -->
<g id="edge5" class="edge">
<title>portfolio_share_and_accept_ou_do8d_me7f39on_region_Portfolio-&gt;create_policies</title>
<path fill="none" stroke="#000000" d="M884.2643,-143.5617C1280.2928,-136.6377 2093.9311,-119.7965 2115,-98 2123.0312,-89.6915 2122.7171,-80.601 2115,-72 2087.602,-41.464 1829.5675,-26.5777 1696.5247,-20.8813"/>
<polygon fill="#000000" stroke="#000000" points="1696.5258,-17.3783 1686.3874,-20.4546 1696.2314,-24.3721 1696.5258,-17.3783"/>
</g>
<!-- portfolio_puppet_role_association_spoke_account_id_region_Portfolio -->
<g id="node5" class="node">
<title>portfolio_puppet_role_association_spoke_account_id_region_Portfolio</title>
<polygon fill="none" stroke="#880000" stroke-opacity="0.133333" points="1152,-72 1152,-98 1598,-98 1598,-72 1152,-72"/>
<text text-anchor="start" x="1157.1166" y="-81.4" font-family="Times,serif" font-size="14.00" fill="#000000"> </text>
<text text-anchor="start" x="1160.6166" y="-81.4" font-family="Times,serif" font-weight="bold" font-size="14.00" fill="#000000">portfolio-puppet-role-association-spoke_account_id-region-Portfolio</text>
</g>
<!-- portfolio_puppet_role_association_spoke_account_id_region_Portfolio&#45;&gt;portfolio_local_hub_account_id_region_Portfolio -->
<g id="edge7" class="edge">
<title>portfolio_puppet_role_association_spoke_account_id_region_Portfolio-&gt;portfolio_local_hub_account_id_region_Portfolio</title>
<path fill="none" stroke="#000000" d="M1285.878,-71.9625C1208.3906,-60.627 1096.2682,-44.2248 1016.0045,-32.4832"/>
<polygon fill="#000000" stroke="#000000" points="1016.2872,-28.9874 1005.8859,-31.003 1015.2739,-35.9137 1016.2872,-28.9874"/>
</g>
<!-- portfolio_puppet_role_association_spoke_account_id_region_Portfolio&#45;&gt;create_policies -->
<g id="edge8" class="edge">
<title>portfolio_puppet_role_association_spoke_account_id_region_Portfolio-&gt;create_policies</title>
<path fill="none" stroke="#000000" d="M1422.4297,-71.9227C1461.9412,-61.0286 1518.3522,-45.4749 1560.4441,-33.8693"/>
<polygon fill="#000000" stroke="#000000" points="1561.5654,-37.1909 1570.2753,-31.1587 1559.7047,-30.4427 1561.5654,-37.1909"/>
</g>
<!-- portfolio_associations_imported_portfolios_item_name_spoke_account_id_region -->
<g id="node6" class="node">
<title>portfolio_associations_imported_portfolios_item_name_spoke_account_id_region</title>
<polygon fill="none" stroke="#880000" stroke-opacity="0.133333" points="1616,-72 1616,-98 2106,-98 2106,-72 1616,-72"/>
<text text-anchor="start" x="1620.5591" y="-81.4" font-family="Times,serif" font-size="14.00" fill="#000000"> </text>
<text text-anchor="start" x="1624.0591" y="-81.4" font-family="Times,serif" font-weight="bold" font-size="14.00" fill="#000000">portfolio_associations-imported-portfolios-item_name-spoke_account_id-region</text>
</g>
<!-- portfolio_associations_imported_portfolios_item_name_spoke_account_id_region&#45;&gt;portfolio_local_hub_account_id_region_Portfolio -->
<g id="edge9" class="edge">
<title>portfolio_associations_imported_portfolios_item_name_spoke_account_id_region-&gt;portfolio_local_hub_account_id_region_Portfolio</title>
<path fill="none" stroke="#000000" d="M1677.5878,-71.9824C1508.4496,-59.9779 1259.0749,-42.2786 1092.4987,-30.4559"/>
<polygon fill="#000000" stroke="#000000" points="1092.3689,-26.938 1082.1461,-29.7212 1091.8732,-33.9205 1092.3689,-26.938"/>
</g>
<!-- portfolio_associations_imported_portfolios_item_name_spoke_account_id_region&#45;&gt;create_policies -->
<g id="edge10" class="edge">
<title>portfolio_associations_imported_portfolios_item_name_spoke_account_id_region-&gt;create_policies</title>
<path fill="none" stroke="#000000" d="M1813.5703,-71.9227C1774.0588,-61.0286 1717.6478,-45.4749 1675.5559,-33.8693"/>
<polygon fill="#000000" stroke="#000000" points="1676.2953,-30.4427 1665.7247,-31.1587 1674.4346,-37.1909 1676.2953,-30.4427"/>
</g>
</g>
</svg>